<svg width="545" height="363" viewBox="0 0 545 363" fill="none" xmlns="http://www.w3.org/2000/svg">
<g clip-path="url(#clip0_9_36)">
<path d="M401.288 0.226501H0.171272V256.112H401.288V0.226501Z" fill="#E6E6E6"/>
<path d="M389.818 32.3209H11.6411V129.867H389.818V32.3209Z" fill="white"/>
<path d="M185.685 46.4109H105.709V50.9838H185.685V46.4109Z" fill="#E6E6E6"/>
<path d="M229.21 63.0916H105.709V67.6645H229.21V63.0916Z" fill="#A334ED"/>
<path d="M206.359 78.8073H105.709V83.3802H206.359V78.8073Z" fill="#E6E6E6"/>
<path d="M164.467 94.4636H105.709V99.0365H164.467V94.4636Z" fill="#E6E6E6"/>
<path d="M194.39 110.12H105.709V114.693H194.39V110.12Z" fill="#E6E6E6"/>
<path d="M79.0505 44.7851H69.2575V54.5397H79.0505V44.7851Z" fill="#E6E6E6"/>
<path d="M79.0505 60.5008H69.2575V70.2554H79.0505V60.5008Z" fill="#A334ED"/>
<path d="M79.0505 76.2165H69.2575V85.9711H79.0505V76.2165Z" fill="#E6E6E6"/>
<path d="M79.0505 91.9322H69.2575V101.687H79.0505V91.9322Z" fill="#E6E6E6"/>
<path d="M79.0505 107.648H69.2575V117.402H79.0505V107.648Z" fill="#E6E6E6"/>
<path d="M336.932 67.0038H304.289V99.5191H336.932V67.0038Z" fill="#E6E6E6"/>
<path d="M389.818 143.415H11.6411V240.96H389.818V143.415Z" fill="white"/>
<path d="M95.9161 152.084H86.1232V161.839H95.9161V152.084Z" fill="#E6E6E6"/>
<path d="M79.0505 152.084H69.2575V161.839H79.0505V152.084Z" fill="#A334ED"/>
<path d="M235.299 173.415C232.314 168.382 228.173 164.126 223.215 160.998C218.257 157.869 212.625 155.957 206.781 155.42C200.937 154.882 195.048 155.734 189.599 157.904C184.149 160.075 179.295 163.503 175.435 167.907L173.049 165.83C177.238 161.049 182.506 157.327 188.421 154.97C194.336 152.613 200.728 151.688 207.072 152.272C213.415 152.855 219.529 154.931 224.911 158.327C230.292 161.723 234.787 166.343 238.026 171.807L235.299 173.415Z" fill="#E6E6E6"/>
<path d="M236.792 214.54L234.162 212.778C238.058 206.991 240.231 200.225 240.433 193.26C240.634 186.295 238.854 179.416 235.299 173.415L238.026 171.807C241.886 178.321 243.819 185.79 243.601 193.351C243.382 200.912 241.022 208.258 236.792 214.54Z" fill="#A334ED"/>
<path d="M173.379 218.938C166.828 211.65 163.178 202.228 163.117 192.446C163.057 182.664 166.589 173.198 173.049 165.83L175.435 167.907C169.485 174.695 166.231 183.415 166.287 192.427C166.343 201.438 169.705 210.118 175.74 216.832L173.379 218.938Z" fill="#A334ED"/>
<path d="M203.367 232.291C197.707 232.287 192.112 231.096 186.946 228.795C181.779 226.494 177.156 223.136 173.379 218.938L175.74 216.832C179.508 221.025 184.188 224.305 189.423 226.422C194.659 228.539 200.31 229.436 205.947 229.045C211.583 228.654 217.055 226.985 221.945 224.166C226.835 221.347 231.014 217.452 234.162 212.778L236.792 214.54C233.113 220.005 228.138 224.484 222.309 227.58C216.479 230.676 209.973 232.294 203.367 232.291Z" fill="#A334ED"/>
<path d="M336.932 173.22H304.289V205.735H336.932V173.22Z" fill="#E6E6E6"/>
<path d="M100.541 194.355H67.8973V226.87H100.541V194.355Z" fill="#E6E6E6"/>
<path d="M401.117 0H0V16.9741H401.117V0Z" fill="#A334ED"/>
<path d="M12.6634 11.8241C14.4078 11.8241 15.8218 10.4156 15.8218 8.67806C15.8218 6.94056 14.4078 5.53204 12.6634 5.53204C10.9191 5.53204 9.50504 6.94056 9.50504 8.67806C9.50504 10.4156 10.9191 11.8241 12.6634 11.8241Z" fill="white"/>
<path d="M24.6519 11.8241C26.3963 11.8241 27.8103 10.4156 27.8103 8.67806C27.8103 6.94056 26.3963 5.53204 24.6519 5.53204C22.9076 5.53204 21.4935 6.94056 21.4935 8.67806C21.4935 10.4156 22.9076 11.8241 24.6519 11.8241Z" fill="white"/>
<path d="M36.6404 11.8241C38.3848 11.8241 39.7988 10.4156 39.7988 8.67806C39.7988 6.94056 38.3848 5.53204 36.6404 5.53204C34.8961 5.53204 33.482 6.94056 33.482 8.67806C33.482 10.4156 34.8961 11.8241 36.6404 11.8241Z" fill="white"/>
<path d="M465.877 354.186H473.997L477.861 322.987L465.875 322.988L465.877 354.186Z" fill="#FFB8B8"/>
<path d="M463.806 351.546L479.798 351.545H479.799C482.501 351.545 485.093 352.615 487.005 354.519C488.916 356.422 489.99 359.004 489.99 361.696V362.026L463.806 362.027L463.806 351.546Z" fill="#2F2E41"/>
<path d="M445.653 323.556L451.646 329.015L475.635 308.59L466.791 300.533L445.653 323.556Z" fill="#FFB8B8"/>
<path d="M445.914 320.215L457.715 330.965L457.716 330.966C459.71 332.783 460.898 335.315 461.019 338.004C461.139 340.694 460.182 343.321 458.358 345.308L458.134 345.551L438.812 327.95L445.914 320.215Z" fill="#2F2E41"/>
<path d="M478.64 244.625L476.339 290.475L482.093 340.337L464.831 342.63L453.899 279.586L450.447 236.601L478.64 244.625Z" fill="#2F2E41"/>
<path d="M505.683 228.004C505.683 228.004 512.588 273.281 498.204 288.182C483.819 303.084 464.256 329.447 464.256 329.447L450.447 312.254L485.545 275.001L478.64 249.783L450.447 236.601L455.05 205.079L496.477 204.506L505.683 228.004Z" fill="#2F2E41"/>
<path d="M474 123.122C481.783 123.122 488.092 116.838 488.092 109.086C488.092 101.334 481.783 95.0494 474 95.0494C466.217 95.0494 459.908 101.334 459.908 109.086C459.908 116.838 466.217 123.122 474 123.122Z" fill="#FFB8B8"/>
<path d="M485.688 129.035L487.846 132.292L493.601 148.34L488.998 210.81L461.954 211.384L458.502 139.743L465.734 130.739L485.688 129.035Z" fill="#CCCCCC"/>
<path d="M447.57 141.462L442.967 140.889C442.967 140.889 441.816 141.462 441.241 145.474C440.665 149.486 433.761 185.02 433.761 185.02L442.967 228.577L453.324 214.822L446.994 190.751L453.324 166.68L447.57 141.462Z" fill="#2F2E41"/>
<path d="M506.259 140.889H509.711L518.342 187.312L510.287 223.419L502.231 210.237L504.533 195.909L503.382 183.301L499.354 175.85L506.259 140.889Z" fill="#2F2E41"/>
<path d="M482.327 109.086L479.765 108.448C479.765 108.448 477.843 97.6015 473.359 98.8775C468.876 100.154 457.346 101.43 457.346 96.3254C457.346 91.2213 468.235 86.7551 474.64 87.3932C481.046 88.0312 489.226 90.1478 491.294 99.5155C494.609 114.532 484.455 118.326 484.455 118.326L484.624 117.779C485.093 116.261 485.126 114.642 484.721 113.106C484.315 111.57 483.486 110.177 482.327 109.086Z" fill="#2F2E41"/>
<path d="M443.542 140.889L461.954 133.439L466.27 130.286L479.216 187.312L487.847 161.522L485.257 128.567L509.136 140.889L501.08 179.862L499.93 194.763L503.382 206.799C503.382 206.799 515.465 215.395 511.437 224.565C507.41 233.735 502.807 234.309 502.807 234.309C502.807 234.309 483.244 215.969 482.093 211.384C480.942 206.799 479.216 198.775 479.216 198.775C479.216 198.775 469.434 235.455 457.927 234.882C446.419 234.309 446.419 222.273 446.419 222.273L449.296 209.664L453.899 196.482L451.598 174.704L443.542 140.889Z" fill="#2F2E41"/>
<path d="M544.43 363H391.64C391.489 363 391.344 362.94 391.237 362.834C391.13 362.727 391.07 362.583 391.07 362.432C391.07 362.281 391.13 362.137 391.237 362.031C391.344 361.924 391.489 361.864 391.64 361.864H544.43C544.581 361.864 544.726 361.924 544.833 362.031C544.94 362.137 545 362.281 545 362.432C545 362.583 544.94 362.727 544.833 362.834C544.726 362.94 544.581 363 544.43 363Z" fill="#CCCCCC"/>
</g>
<defs>
<clipPath id="clip0_9_36">
<rect width="545" height="363" fill="white"/>
</clipPath>
</defs>
</svg>
