<svg width="83" height="26" viewBox="0 0 83 26" fill="none" xmlns="http://www.w3.org/2000/svg">
<g clip-path="url(#clip0_39_1140)">
<path d="M0 15.6896C0 13.299 1.93485 11.3613 4.32164 11.3613C6.70851 11.3613 8.64327 13.299 8.64327 15.6896C8.64327 18.0801 6.70851 20.0179 4.32164 20.0179C1.93485 20.0179 0 18.0801 0 15.6896Z" fill="white"/>
<path d="M11.4284 0V19.891H15.0526V3.02649C15.0526 3.02649 20.6545 3.02649 23.3539 3.02649V19.891H26.9896V3.02649C29.3833 3.02649 31.4204 3.02649 32.5108 3.02649C34.3754 3.02649 35.6918 4.147 35.6918 6.57747V19.891H39.3192C39.3192 14.67 39.3192 10.1165 39.3192 5.57145C39.3192 2.86264 37.924 0 34.3367 0H11.4284Z" fill="white"/>
<path d="M46.579 0C42.6643 0 41.4778 2.60401 41.4778 5.52001C41.4778 8.635 42.7702 11.2589 46.3275 11.2589C49.5353 11.2589 52.541 11.2589 54.9548 11.2589C57.5979 11.2589 57.5979 13.2938 57.5979 14.2197C57.5979 15.0826 57.5979 16.8584 55.0211 16.8584C52.9618 16.8584 41.8166 16.8584 41.8166 16.8584C41.8166 16.8584 41.8166 19.044 41.8166 19.891H56.5382C60.2097 19.891 61.2612 17.7308 61.2612 14.2465C61.2612 10.0951 59.9076 8.23454 56.7702 8.23454C53.0755 8.23454 50.4832 8.23454 47.4551 8.23454C45.1047 8.23454 45.1047 6.64399 45.1047 5.58363C45.1047 4.75655 45.3378 3.02649 47.8576 3.02649C50.5042 3.02649 60.5836 3.02649 60.5836 3.02649C60.5836 1.80874 60.5836 1.15132 60.5836 3.39316e-08L46.579 0Z" fill="white"/>
<path fill-rule="evenodd" clip-rule="evenodd" d="M70.6812 0C67.4486 0 66.2458 0.517084 65.3592 1.22505C64.392 1.9977 63.5059 2.97853 63.4874 6.31355V9.86643V13.4946C63.4874 17.028 64.4669 18.0165 65.4686 18.8595C66.1432 19.3416 67.2598 19.891 70.6895 19.891H79.3868C79.3868 19.891 79.3915 20.4987 79.3887 20.6597C79.3868 22.1608 79.0995 22.8159 77.382 22.8159H66.0448V26H78.54C81.9091 26 82.9999 24.4983 82.9999 21.6618V0H70.6812ZM79.3887 16.8617H71.7836C69.5359 16.8749 67.2565 17.0313 67.1975 14.1157C67.195 13.995 67.1854 12.9214 67.1975 9.80304C67.2077 7.15836 67.1834 6.52637 67.1975 6.25266C67.323 3.81001 68.2231 2.94077 71.9442 3.0299C72.1624 3.0352 79.3887 3.0299 79.3887 3.0299V16.8617Z" fill="white"/>
</g>
<defs>
<clipPath id="clip0_39_1140">
<rect width="83" height="26" fill="white"/>
</clipPath>
</defs>
</svg>
